<svg width="258" height="57" viewBox="0 0 258 57" fill="none" xmlns="http://www.w3.org/2000/svg">
<path d="M96.9555 15.728L87.9915 41H80.2875L71.3235 15.728H77.8755L84.1395 34.808L90.4395 15.728H96.9555ZM103.164 18.824C102.084 18.824 101.196 18.512 100.5 17.888C99.8284 17.24 99.4924 16.448 99.4924 15.512C99.4924 14.552 99.8284 13.76 100.5 13.136C101.196 12.488 102.084 12.164 103.164 12.164C104.22 12.164 105.084 12.488 105.756 13.136C106.452 13.76 106.8 14.552 106.8 15.512C106.8 16.448 106.452 17.24 105.756 17.888C105.084 18.512 104.22 18.824 103.164 18.824ZM106.224 20.912V41H100.068V20.912H106.224ZM122.422 35.78V41H119.29C117.058 41 115.318 40.46 114.07 39.38C112.822 38.276 112.198 36.488 112.198 34.016V26.024H109.75V20.912H112.198V16.016H118.354V20.912H122.386V26.024H118.354V34.088C118.354 34.688 118.498 35.12 118.786 35.384C119.074 35.648 119.554 35.78 120.226 35.78H122.422ZM135.535 41.288C133.567 41.288 131.791 40.868 130.207 40.028C128.647 39.188 127.411 37.988 126.499 36.428C125.611 34.868 125.167 33.044 125.167 30.956C125.167 28.892 125.623 27.08 126.535 25.52C127.447 23.936 128.695 22.724 130.279 21.884C131.863 21.044 133.639 20.624 135.607 20.624C137.575 20.624 139.351 21.044 140.935 21.884C142.519 22.724 143.767 23.936 144.679 25.52C145.591 27.08 146.047 28.892 146.047 30.956C146.047 33.02 145.579 34.844 144.643 36.428C143.731 37.988 142.471 39.188 140.863 40.028C139.279 40.868 137.503 41.288 135.535 41.288ZM135.535 35.96C136.711 35.96 137.707 35.528 138.523 34.664C139.363 33.8 139.783 32.564 139.783 30.956C139.783 29.348 139.375 28.112 138.559 27.248C137.767 26.384 136.783 25.952 135.607 25.952C134.407 25.952 133.411 26.384 132.619 27.248C131.827 28.088 131.431 29.324 131.431 30.956C131.431 32.564 131.815 33.8 132.583 34.664C133.375 35.528 134.359 35.96 135.535 35.96ZM156.008 24.26C156.728 23.156 157.628 22.292 158.708 21.668C159.788 21.02 160.988 20.696 162.308 20.696V27.212H160.616C159.08 27.212 157.928 27.548 157.16 28.22C156.392 28.868 156.008 30.02 156.008 31.676V41H149.852V20.912H156.008V24.26ZM183.971 15.728V20.66H177.275V41H171.119V20.66H164.423V15.728H183.971ZM207.436 20.912V41H201.28V38.264C200.656 39.152 199.804 39.872 198.724 40.424C197.668 40.952 196.492 41.216 195.196 41.216C193.66 41.216 192.304 40.88 191.128 40.208C189.952 39.512 189.04 38.516 188.392 37.22C187.744 35.924 187.42 34.4 187.42 32.648V20.912H193.54V31.82C193.54 33.164 193.888 34.208 194.584 34.952C195.28 35.696 196.216 36.068 197.392 36.068C198.592 36.068 199.54 35.696 200.236 34.952C200.932 34.208 201.28 33.164 201.28 31.82V20.912H207.436ZM218.554 23.756C219.13 22.82 219.958 22.064 221.038 21.488C222.118 20.912 223.354 20.624 224.746 20.624C226.402 20.624 227.902 21.044 229.246 21.884C230.59 22.724 231.646 23.924 232.414 25.484C233.206 27.044 233.602 28.856 233.602 30.92C233.602 32.984 233.206 34.808 232.414 36.392C231.646 37.952 230.59 39.164 229.246 40.028C227.902 40.868 226.402 41.288 224.746 41.288C223.33 41.288 222.094 41.012 221.038 40.46C219.982 39.884 219.154 39.128 218.554 38.192V41H212.398V14.36H218.554V23.756ZM227.338 30.92C227.338 29.384 226.906 28.184 226.042 27.32C225.202 26.432 224.158 25.988 222.91 25.988C221.686 25.988 220.642 26.432 219.778 27.32C218.938 28.208 218.518 29.42 218.518 30.956C218.518 32.492 218.938 33.704 219.778 34.592C220.642 35.48 221.686 35.924 222.91 35.924C224.134 35.924 225.178 35.48 226.042 34.592C226.906 33.68 227.338 32.456 227.338 30.92ZM256.308 30.632C256.308 31.208 256.272 31.808 256.2 32.432H242.268C242.364 33.68 242.76 34.64 243.456 35.312C244.176 35.96 245.052 36.284 246.084 36.284C247.62 36.284 248.688 35.636 249.288 34.34H255.84C255.504 35.66 254.892 36.848 254.004 37.904C253.14 38.96 252.048 39.788 250.728 40.388C249.408 40.988 247.932 41.288 246.3 41.288C244.332 41.288 242.58 40.868 241.044 40.028C239.508 39.188 238.308 37.988 237.444 36.428C236.58 34.868 236.148 33.044 236.148 30.956C236.148 28.868 236.568 27.044 237.408 25.484C238.272 23.924 239.472 22.724 241.008 21.884C242.544 21.044 244.308 20.624 246.3 20.624C248.244 20.624 249.972 21.032 251.484 21.848C252.996 22.664 254.172 23.828 255.012 25.34C255.876 26.852 256.308 28.616 256.308 30.632ZM250.008 29.012C250.008 27.956 249.648 27.116 248.928 26.492C248.208 25.868 247.308 25.556 246.228 25.556C245.196 25.556 244.32 25.856 243.6 26.456C242.904 27.056 242.472 27.908 242.304 29.012H250.008Z" fill="#1a1a1a"/>
<ellipse cx="28.5" cy="28.5" rx="28.5" ry="28.5" fill="#FF0000"/>
<path d="M22.9995 41V16L39.9995 29L22.9995 41Z" fill="white"/>
</svg>
